<svg width="150" height="150" viewBox="0 0 150 150" fill="none" xmlns="http://www.w3.org/2000/svg">
<path d="M118.75 40.625H100V34.375C100 29.4022 98.0246 24.6331 94.5083 21.1167C90.992 17.6004 86.2228 15.625 81.25 15.625H68.75C63.7772 15.625 59.0081 17.6004 55.4917 21.1167C51.9754 24.6331 50 29.4022 50 34.375V40.625H31.25C26.2772 40.625 21.5081 42.6004 17.9917 46.1167C14.4754 49.6331 12.5 54.4022 12.5 59.375V115.625C12.5 120.598 14.4754 125.367 17.9917 128.883C21.5081 132.4 26.2772 134.375 31.25 134.375H118.75C123.723 134.375 128.492 132.4 132.008 128.883C135.525 125.367 137.5 120.598 137.5 115.625V59.375C137.5 54.4022 135.525 49.6331 132.008 46.1167C128.492 42.6004 123.723 40.625 118.75 40.625ZM62.5 34.375C62.5 32.7174 63.1585 31.1277 64.3306 29.9556C65.5027 28.7835 67.0924 28.125 68.75 28.125H81.25C82.9076 28.125 84.4973 28.7835 85.6694 29.9556C86.8415 31.1277 87.5 32.7174 87.5 34.375V40.625H62.5V34.375ZM125 115.625C125 117.283 124.342 118.872 123.169 120.044C121.997 121.217 120.408 121.875 118.75 121.875H31.25C29.5924 121.875 28.0027 121.217 26.8306 120.044C25.6585 118.872 25 117.283 25 115.625V81.25C40.9141 87.5634 57.8793 90.808 75 90.8125C92.1201 90.802 109.084 87.5576 125 81.25V115.625ZM125 67.5625C109.24 74.4861 92.2138 78.0611 75 78.0611C57.7862 78.0611 40.76 74.4861 25 67.5625V59.375C25 57.7174 25.6585 56.1277 26.8306 54.9556C28.0027 53.7835 29.5924 53.125 31.25 53.125H118.75C120.408 53.125 121.997 53.7835 123.169 54.9556C124.342 56.1277 125 57.7174 125 59.375V67.5625Z" fill="#4F4F4F"/>
</svg>
