<svg width="150" height="150" viewBox="0 0 150 150" fill="none" xmlns="http://www.w3.org/2000/svg">
<path d="M23.2228 51.7773H4.39453C1.96758 51.7773 0 53.7449 0 56.1719V103.242C0 105.669 1.96758 107.637 4.39453 107.637H23.2228C25.6497 107.637 27.6173 105.669 27.6173 103.242V56.1719C27.6173 53.7449 25.6497 51.7773 23.2228 51.7773Z" fill="#4F4F4F"/>
<path d="M105.596 102.617C108.023 102.617 109.99 100.65 109.99 98.2226V88.4961H110.303C112.73 88.4961 114.697 86.5285 114.697 84.1015C114.697 81.6746 112.73 79.707 110.303 79.707H109.99V55.8594C109.99 54.0822 108.92 52.4797 107.278 51.7994C105.636 51.1191 103.746 51.4947 102.489 52.7515C102.489 52.7515 88.7684 66.4675 82.2633 72.9679C79.3415 75.9055 77.666 79.9637 77.666 84.1015C77.666 86.5285 79.6336 88.4961 82.0605 88.4961H101.201V98.2226C101.201 100.65 103.169 102.617 105.596 102.617ZM88.0093 79.707C88.1587 79.5219 88.3175 79.3443 88.4853 79.1753C91.7769 75.8861 96.9246 70.741 101.201 66.466V79.707H88.0093Z" fill="#4F4F4F"/>
<path d="M69.9801 98.2227C69.9801 95.7957 68.0125 93.8281 65.5855 93.8281H47.9995C48.1486 93.643 48.3074 93.4651 48.4753 93.2964C54.9713 86.8051 68.6925 73.0883 68.6925 73.0883C69.5169 72.2642 69.9804 71.1462 69.9804 69.9805V67.6271C69.9804 58.7152 62.7303 51.4648 53.8185 51.4648C44.822 51.4648 37.6562 58.7521 37.6562 67.6221V67.6268C37.6562 70.0537 39.6238 72.0189 42.0508 72.0189C44.4777 72.0189 46.4453 70.049 46.4453 67.6221C46.4453 63.5905 49.6914 60.2539 53.8185 60.2539C57.884 60.2539 61.1913 63.5615 61.1913 67.6271V68.1597C57.6279 71.7219 47.5495 81.7965 42.2532 87.0893C39.3314 90.0269 37.6562 94.0851 37.6562 98.2227C37.6562 100.65 39.6238 102.617 42.0508 102.617H65.5858C68.0125 102.617 69.9801 100.65 69.9801 98.2227Z" fill="#4F4F4F"/>
<path d="M74.9998 8.78906C97.0562 8.78906 115.641 23.9379 120.897 44.3774C122.668 43.4903 124.665 42.9882 126.777 42.9882H129.605C123.658 18.3551 101.433 0 74.9998 0C48.5661 0 26.3421 18.3551 20.3945 42.9882H23.2226C25.3352 42.9882 27.3314 43.4903 29.1033 44.3774C34.3586 23.9379 52.9434 8.78906 74.9998 8.78906Z" fill="#4F4F4F"/>
<path d="M120.038 114.567C115.645 124.694 105.551 131.797 93.8281 131.797H88.0877C86.2476 126.332 81.0778 122.383 75.0002 122.383C67.3862 122.383 61.1914 128.577 61.1914 136.191C61.1914 143.805 67.3859 150 74.9999 150C81.0775 150 86.2473 146.051 88.0874 140.586H93.8278C109.78 140.586 123.426 130.53 128.766 116.426H126.777C124.316 116.426 122.012 115.746 120.038 114.567Z" fill="#4F4F4F"/>
<path d="M145.606 51.7773H126.777C124.35 51.7773 122.383 53.7449 122.383 56.1719V103.242C122.383 105.669 124.35 107.637 126.777 107.637H145.606C148.033 107.637 150 105.669 150 103.242V56.1719C150 53.7449 148.033 51.7773 145.606 51.7773Z" fill="#4F4F4F"/>
</svg>
