<svg width="240" height="240" viewBox="0 0 240 240" fill="none" xmlns="http://www.w3.org/2000/svg">
<g opacity="0.2">
<path d="M210 200H200V50C200 47.3478 198.946 44.8043 197.071 42.9289C195.196 41.0536 192.652 40 190 40C187.348 40 184.804 41.0536 182.929 42.9289C181.054 44.8043 180 47.3478 180 50V200H160V90C160 87.3478 158.946 84.8043 157.071 82.9289C155.196 81.0536 152.652 80 150 80C147.348 80 144.804 81.0536 142.929 82.9289C141.054 84.8043 140 87.3478 140 90V200H120V130C120 127.348 118.946 124.804 117.071 122.929C115.196 121.054 112.652 120 110 120C107.348 120 104.804 121.054 102.929 122.929C101.054 124.804 100 127.348 100 130V200H80V170C80 167.348 78.9464 164.804 77.0711 162.929C75.1957 161.054 72.6522 160 70 160C67.3478 160 64.8043 161.054 62.9289 162.929C61.0536 164.804 60 167.348 60 170V200H40V30C40 27.3478 38.9464 24.8043 37.0711 22.9289C35.1957 21.0536 32.6522 20 30 20C27.3478 20 24.8043 21.0536 22.9289 22.9289C21.0536 24.8043 20 27.3478 20 30V210C20 212.652 21.0536 215.196 22.9289 217.071C24.8043 218.946 27.3478 220 30 220H210C212.652 220 215.196 218.946 217.071 217.071C218.946 215.196 220 212.652 220 210C220 207.348 218.946 204.804 217.071 202.929C215.196 201.054 212.652 200 210 200Z" fill="white"/>
</g>
</svg>
