<svg width="240" height="240" viewBox="0 0 240 240" fill="none" xmlns="http://www.w3.org/2000/svg">
<g opacity="0.2">
<path d="M214.1 86.4C214.1 86.4 214.1 86.4 214.1 85.9C207.054 66.6623 194.269 50.0529 177.474 38.3187C160.68 26.5845 140.687 20.2917 120.2 20.2917C99.7121 20.2917 79.7189 26.5845 62.9247 38.3187C46.1304 50.0529 33.3456 66.6623 26.2996 85.9C26.2996 85.9 26.2996 85.9 26.2996 86.4C18.4308 108.109 18.4308 131.891 26.2996 153.6C26.2996 153.6 26.2996 153.6 26.2996 154.1C33.3456 173.338 46.1304 189.947 62.9247 201.681C79.7189 213.416 99.7121 219.708 120.2 219.708C140.687 219.708 160.68 213.416 177.474 201.681C194.269 189.947 207.054 173.338 214.1 154.1C214.1 154.1 214.1 154.1 214.1 153.6C221.968 131.891 221.968 108.109 214.1 86.4ZM42.5996 140C39.1319 126.892 39.1319 113.108 42.5996 100H61.1996C59.5999 113.285 59.5999 126.715 61.1996 140H42.5996ZM50.7996 160H64.7996C67.1468 168.918 70.5017 177.541 74.7996 185.7C64.9926 179.019 56.7945 170.241 50.7996 160ZM64.7996 80H50.7996C56.7083 69.7909 64.8015 61.0147 74.4996 54.3C70.3051 62.4725 67.051 71.0942 64.7996 80ZM110 197C97.7172 187.987 89.0911 174.852 85.6996 160H110V197ZM110 140H81.3996C79.5335 126.732 79.5335 113.268 81.3996 100H110V140ZM110 80H85.6996C89.0911 65.1477 97.7172 52.0132 110 43V80ZM189.2 80H175.2C172.852 71.0816 169.497 62.4594 165.2 54.3C175.007 60.9807 183.205 69.7594 189.2 80ZM130 43C142.282 52.0132 150.908 65.1477 154.3 80H130V43ZM130 197V160H154.3C150.908 174.852 142.282 187.987 130 197ZM158.6 140H130V100H158.6C160.466 113.268 160.466 126.732 158.6 140ZM165.5 185.7C169.797 177.541 173.152 168.918 175.5 160H189.5C183.505 170.241 175.307 179.019 165.5 185.7ZM197.4 140H178.8C179.613 133.365 180.014 126.685 180 120C180.011 113.315 179.61 106.636 178.8 100H197.4C200.867 113.108 200.867 126.892 197.4 140Z" fill="white"/>
</g>
</svg>
