<svg width="150" height="150" viewBox="0 0 150 150" fill="none" xmlns="http://www.w3.org/2000/svg">
<path d="M75 12.5C62.6387 12.5 50.555 16.1656 40.2769 23.0332C29.9988 29.9007 21.988 39.6619 17.2576 51.0823C12.5271 62.5027 11.2894 75.0693 13.7009 87.1931C16.1125 99.317 22.0651 110.453 30.8059 119.194C39.5466 127.935 50.6831 133.888 62.8069 136.299C74.9307 138.711 87.4974 137.473 98.9177 132.742C110.338 128.012 120.099 120.001 126.967 109.723C133.834 99.4451 137.5 87.3613 137.5 75C137.5 66.7924 135.883 58.6651 132.743 51.0823C129.602 43.4994 124.998 36.6095 119.194 30.8058C113.391 25.0022 106.501 20.3984 98.9177 17.2575C91.3349 14.1166 83.2076 12.5 75 12.5ZM75 125C65.111 125 55.444 122.068 47.2215 116.573C38.9991 111.079 32.5904 103.27 28.8061 94.1342C25.0217 84.9979 24.0315 74.9445 25.9608 65.2455C27.89 55.5464 32.6521 46.6373 39.6447 39.6447C46.6373 32.652 55.5465 27.89 65.2455 25.9607C74.9446 24.0315 84.9979 25.0216 94.1342 28.806C103.271 32.5904 111.079 38.999 116.574 47.2215C122.068 55.444 125 65.1109 125 75C125 88.2608 119.732 100.979 110.355 110.355C100.979 119.732 88.2609 125 75 125ZM88.125 60.1875L81.25 64.1875V43.75C81.25 42.0924 80.5915 40.5027 79.4194 39.3306C78.2473 38.1585 76.6576 37.5 75 37.5C73.3424 37.5 71.7527 38.1585 70.5806 39.3306C69.4085 40.5027 68.75 42.0924 68.75 43.75V75C68.75 75 68.75 75 68.75 75.375C68.7206 75.7912 68.7206 76.2089 68.75 76.625C68.8468 77.0088 68.9722 77.3849 69.125 77.75C69.125 77.75 69.125 77.75 69.125 78.125C69.4235 78.5684 69.758 78.9865 70.125 79.375C70.6299 79.8756 71.2233 80.2783 71.875 80.5625H72.375C73.1891 80.9811 74.0852 81.2158 75 81.25C75.7285 81.2292 76.4476 81.0811 77.125 80.8125H77.6875H78.125L94.375 71.4375C95.8171 70.6087 96.8709 69.241 97.3046 67.6352C97.7383 66.0294 97.5163 64.3171 96.6875 62.875C95.8587 61.4329 94.491 60.3791 92.8852 59.9454C91.2794 59.5117 89.5671 59.7337 88.125 60.5625V60.1875Z" fill="#0C8970"/>
</svg>
