<svg width="60" height="60" viewBox="0 0 60 60" fill="none" xmlns="http://www.w3.org/2000/svg">
<path d="M17.7599 17.938C20.1051 17.938 22.2486 18.7838 23.9018 20.1872C17.8944 17.6977 16.0394 18.1014 15.9817 18.111V18.1014C16.5584 17.9957 17.1543 17.938 17.7599 17.938Z" fill="url(#paint0_linear_758_1856)"/>
<path d="M55.7265 16.7366C55.7265 17.6113 55.5343 18.3226 55.2075 18.8993C54.4962 20.1584 53.1602 20.7159 51.9972 20.812C51.8722 20.8216 51.7569 20.8216 51.6415 20.8216C49.3828 20.8216 47.5565 18.9954 47.5565 16.7366C47.5565 14.4779 49.3828 12.6516 51.6415 12.6516C53.9003 12.6516 55.7265 14.4779 55.7265 16.7366Z" fill="url(#paint1_linear_758_1856)"/>
<path d="M8.63279 23.6882C10.238 22.2272 12.3718 21.3429 14.7074 21.3429C16.3511 21.3429 17.8889 21.7754 19.2154 22.5444C19.3403 22.5924 22.3392 23.8419 26.5588 29.955C27.3758 31.1373 28.2312 32.5022 29.1251 34.0689C29.6249 34.9436 30.1344 35.8951 30.6534 36.9044C30.6534 36.9044 31.5569 38.7114 34.8634 46.7949C35.0844 47.3428 35.3247 47.9291 35.5746 48.5442C35.9399 49.4478 36.334 50.4089 36.7473 51.447C36.8434 52.1487 37.1221 52.7927 37.5258 53.3309C38.2659 54.3113 39.429 54.9553 40.7458 54.9649C40.7458 54.9649 40.7458 54.9649 40.7554 54.9649C44.1195 54.8592 46.9262 46.6507 46.9262 46.6507C52.6932 35.4914 51.7321 21.9004 51.6359 20.7277C52.799 20.6316 54.1254 20.0741 54.8463 18.815C55.3269 19.9588 57.9893 28.1192 48.3007 52.3121C48.3007 52.3121 46.1092 56.8392 41.9473 58.2041C41.6205 58.2522 41.2937 58.2714 40.9476 58.2714C39.3617 58.2714 37.9007 57.7716 36.6992 56.9257C36.0937 56.4932 35.5554 55.9742 35.1037 55.3878C34.748 54.9265 34.4405 54.4171 34.2098 53.8692C34.104 53.6289 34.0175 53.3886 33.931 53.1387C32.5181 50.63 31.6146 49.8418 31.1244 49.6015C30.9802 49.5631 30.836 49.5343 30.6822 49.515C30.4996 49.4862 30.317 49.4766 30.1248 49.4766C29.4808 49.4766 28.8752 49.6208 28.337 49.8899C28.2985 49.9187 26.9913 50.8703 26.0397 53.5135C26.0397 53.5135 25.8187 53.898 25.4726 54.4363C25.0017 55.1764 24.3 56.1952 23.6464 56.8969C23.4542 57.1084 23.2715 57.2814 23.0889 57.4159C22.964 57.4928 22.839 57.5697 22.7141 57.6466C21.8394 58.1368 20.8205 58.4156 19.744 58.4156C19.1865 58.4156 18.6579 58.3387 18.1485 58.2041C17.9947 58.1272 8.70007 53.5328 5.09565 31.07C4.88419 29.7436 4.69196 28.3595 4.51894 26.8985C4.62467 21.6793 7.74851 17.2002 12.218 15.1337C12.218 15.1337 12.2276 15.1241 12.2468 15.1144C12.266 15.1048 12.2949 15.0856 12.3429 15.076C12.3622 15.0664 12.3814 15.0568 12.4006 15.0472C13.4195 14.6242 18.7252 12.9518 28.9329 18.6612C28.9329 18.6612 38.189 24.6589 41.9761 19.6896C39.8615 20.4201 37.3624 20.0165 37.1029 19.978C37.0933 19.978 37.0837 19.978 37.0837 19.978C35.392 19.7185 32.3162 18.8438 26.9144 16.2294C26.9144 16.2294 25.8571 15.6527 22.1085 14.307C18.3599 12.9614 14.4191 13.2498 14.4191 13.2498C14.4191 13.2498 7.11413 14.2109 4.8073 21.5159L3.75 21.7081C3.75 21.7081 4.13447 12.7692 11.5356 7.19432C11.5356 7.19432 19.1289 -0.302874 32.7776 1.90784C32.7776 1.90784 37.4009 2.6095 41.5147 5.32002C41.5243 5.32002 41.5243 5.32964 41.534 5.32964C42.6681 6.04091 43.5428 7.10782 44.0138 8.36696C44.1484 8.59764 44.2829 8.84755 44.4079 9.09746C44.4175 9.12629 44.4367 9.14552 44.4463 9.17435C45.0903 10.5008 45.5325 12.1156 45.3594 13.913C45.3594 13.913 39.7365 10.8853 32.3355 9.42426C32.3162 9.42426 32.3066 9.42426 32.2874 9.41465C29.3174 8.82833 26.0686 8.50153 22.7717 8.7226C22.7717 8.7226 45.9746 13.0575 46.436 17.3348C46.0707 21.9004 42.2452 25.4952 37.5739 25.4952C37.2183 25.4952 36.8722 25.4759 36.5358 25.4375C36.5166 25.4375 36.4974 25.4375 36.4878 25.4279C36.4109 25.4183 36.3436 25.4087 36.2667 25.3991C36.209 25.3894 36.1513 25.3798 36.0937 25.3702C36.0456 25.3606 35.9976 25.351 35.9495 25.3414C32.7296 24.7839 30.5477 23.4382 30.5092 23.419C27.7699 21.9773 25.4919 20.92 23.6176 20.1414C23.5887 20.1318 23.5599 20.1222 23.5407 20.103C21.8875 18.6996 19.7344 17.8538 17.3987 17.8538C16.7932 17.8538 16.1973 17.9115 15.6206 18.0172C12.4583 18.642 9.85349 20.8046 8.63279 23.6882ZM19.696 54.9841C19.7056 54.9841 19.7056 54.9841 19.7056 54.9841C19.7056 54.9841 20.1093 55.1187 20.5322 54.9073C21.5222 54.5997 22.4353 53.0618 23.0505 51.7642C23.2043 51.1394 23.4349 50.5531 23.7425 49.9956C23.7714 49.938 23.8098 49.8803 23.8386 49.8226C24.0789 49.4189 24.3481 49.0441 24.6556 48.698C26.0013 47.1601 27.9813 46.1894 30.1824 46.1894C30.3554 46.1894 30.5188 46.199 30.6822 46.2086C29.3462 42.4023 26.5684 37.2119 26.5684 37.2119C25.5784 35.0205 24.6076 33.2134 23.656 31.714C17.9947 22.775 13.3041 25.0434 13.1984 25.0915C11.8239 25.3894 10.6224 26.1584 9.76698 27.2061C9.71892 27.2637 9.67086 27.331 9.62281 27.3887C8.09453 29.5321 9.05571 33.7229 9.09416 33.867C9.28639 35.2415 9.57475 36.5968 9.92077 37.8848C9.93999 37.9424 9.94961 38.0097 9.96883 38.0674C11.6509 44.1901 14.6209 49.0152 14.6209 49.0152C14.9862 49.6592 15.3322 50.2455 15.659 50.755C18.1677 54.6862 19.5518 54.9649 19.696 54.9841Z" fill="url(#paint2_linear_758_1856)"/>
<defs>
<linearGradient id="paint0_linear_758_1856" x1="19.9417" y1="17.938" x2="19.9417" y2="20.1872" gradientUnits="userSpaceOnUse">
<stop offset="0.109375" stop-color="#005DAC"/>
<stop offset="0.567708" stop-color="#0C8970"/>
<stop offset="1" stop-color="#02FACF"/>
</linearGradient>
<linearGradient id="paint1_linear_758_1856" x1="51.6415" y1="12.6516" x2="51.6415" y2="20.8216" gradientUnits="userSpaceOnUse">
<stop offset="0.109375" stop-color="#005DAC"/>
<stop offset="0.567708" stop-color="#0C8970"/>
<stop offset="1" stop-color="#02FACF"/>
</linearGradient>
<linearGradient id="paint2_linear_758_1856" x1="29.6461" y1="1.5" x2="29.6461" y2="58.4156" gradientUnits="userSpaceOnUse">
<stop offset="0.109375" stop-color="#005DAC"/>
<stop offset="0.567708" stop-color="#0C8970"/>
<stop offset="1" stop-color="#02FACF"/>
</linearGradient>
</defs>
</svg>
