<svg width="53" height="58" viewBox="0 0 53 58" fill="none" xmlns="http://www.w3.org/2000/svg">
<path d="M14.7599 16.938C17.1051 16.938 19.2486 17.7838 20.9018 19.1872C14.8944 16.6977 13.0394 17.1014 12.9817 17.111V17.1014C13.5584 16.9957 14.1543 16.938 14.7599 16.938Z" fill="url(#paint0_linear_758_1858)"/>
<path d="M52.7265 15.7366C52.7265 16.6113 52.5343 17.3226 52.2075 17.8993C51.4962 19.1584 50.1602 19.7159 48.9972 19.812C48.8722 19.8216 48.7569 19.8216 48.6415 19.8216C46.3828 19.8216 44.5565 17.9954 44.5565 15.7366C44.5565 13.4779 46.3828 11.6516 48.6415 11.6516C50.9003 11.6516 52.7265 13.4779 52.7265 15.7366Z" fill="url(#paint1_linear_758_1858)"/>
<path d="M5.63279 22.6882C7.23796 21.2272 9.37178 20.3429 11.7074 20.3429C13.3511 20.3429 14.8889 20.7754 16.2154 21.5444C16.3403 21.5924 19.3392 22.8419 23.5588 28.955C24.3758 30.1373 25.2312 31.5022 26.1251 33.0689C26.6249 33.9436 27.1344 34.8951 27.6534 35.9044C27.6534 35.9044 28.5569 37.7114 31.8634 45.7949C32.0844 46.3428 32.3247 46.9291 32.5746 47.5442C32.9399 48.4478 33.334 49.4089 33.7473 50.447C33.8434 51.1487 34.1221 51.7927 34.5258 52.3309C35.2659 53.3113 36.429 53.9553 37.7458 53.9649C37.7458 53.9649 37.7458 53.9649 37.7554 53.9649C41.1195 53.8592 43.9262 45.6507 43.9262 45.6507C49.6932 34.4914 48.7321 20.9004 48.6359 19.7277C49.799 19.6316 51.1254 19.0741 51.8463 17.815C52.3269 18.9588 54.9893 27.1192 45.3007 51.3121C45.3007 51.3121 43.1092 55.8392 38.9473 57.2041C38.6205 57.2522 38.2937 57.2714 37.9476 57.2714C36.3617 57.2714 34.9007 56.7716 33.6992 55.9257C33.0937 55.4932 32.5554 54.9742 32.1037 54.3878C31.748 53.9265 31.4405 53.4171 31.2098 52.8692C31.104 52.6289 31.0175 52.3886 30.931 52.1387C29.5181 49.63 28.6146 48.8418 28.1244 48.6015C27.9802 48.5631 27.836 48.5343 27.6822 48.515C27.4996 48.4862 27.317 48.4766 27.1248 48.4766C26.4808 48.4766 25.8752 48.6208 25.337 48.8899C25.2985 48.9187 23.9913 49.8703 23.0397 52.5135C23.0397 52.5135 22.8187 52.898 22.4726 53.4363C22.0017 54.1764 21.3 55.1952 20.6464 55.8969C20.4542 56.1084 20.2715 56.2814 20.0889 56.4159C19.964 56.4928 19.839 56.5697 19.7141 56.6466C18.8394 57.1368 17.8205 57.4156 16.744 57.4156C16.1865 57.4156 15.6579 57.3387 15.1485 57.2041C14.9947 57.1272 5.70007 52.5328 2.09565 30.07C1.88419 28.7436 1.69196 27.3595 1.51894 25.8985C1.62467 20.6793 4.74851 16.2002 9.21799 14.1337C9.21799 14.1337 9.2276 14.1241 9.24682 14.1144C9.26605 14.1048 9.29488 14.0856 9.34294 14.076C9.36216 14.0664 9.38139 14.0568 9.40061 14.0472C10.4195 13.6242 15.7252 11.9518 25.9329 17.6612C25.9329 17.6612 35.189 23.6589 38.9761 18.6896C36.8615 19.4201 34.3624 19.0165 34.1029 18.978C34.0933 18.978 34.0837 18.978 34.0837 18.978C32.392 18.7185 29.3162 17.8438 23.9144 15.2294C23.9144 15.2294 22.8571 14.6527 19.1085 13.307C15.3599 11.9614 11.4191 12.2498 11.4191 12.2498C11.4191 12.2498 4.11413 13.2109 1.8073 20.5159L0.75 20.7081C0.75 20.7081 1.13447 11.7692 8.53555 6.19432C8.53555 6.19432 16.1289 -1.30287 29.7776 0.907837C29.7776 0.907837 34.4009 1.6095 38.5147 4.32002C38.5243 4.32002 38.5243 4.32964 38.534 4.32964C39.6681 5.04091 40.5428 6.10782 41.0138 7.36696C41.1484 7.59764 41.2829 7.84755 41.4079 8.09746C41.4175 8.12629 41.4367 8.14552 41.4463 8.17435C42.0903 9.50078 42.5325 11.1156 42.3594 12.913C42.3594 12.913 36.7365 9.88525 29.3355 8.42426C29.3162 8.42426 29.3066 8.42426 29.2874 8.41465C26.3174 7.82833 23.0686 7.50153 19.7717 7.7226C19.7717 7.7226 42.9746 12.0575 43.436 16.3348C43.0707 20.9004 39.2452 24.4952 34.5739 24.4952C34.2183 24.4952 33.8722 24.4759 33.5358 24.4375C33.5166 24.4375 33.4974 24.4375 33.4878 24.4279C33.4109 24.4183 33.3436 24.4087 33.2667 24.3991C33.209 24.3894 33.1513 24.3798 33.0937 24.3702C33.0456 24.3606 32.9976 24.351 32.9495 24.3414C29.7296 23.7839 27.5477 22.4382 27.5092 22.419C24.7699 20.9773 22.4919 19.92 20.6176 19.1414C20.5887 19.1318 20.5599 19.1222 20.5407 19.103C18.8875 17.6996 16.7344 16.8538 14.3987 16.8538C13.7932 16.8538 13.1973 16.9115 12.6206 17.0172C9.45828 17.642 6.85349 19.8046 5.63279 22.6882ZM16.696 53.9841C16.7056 53.9841 16.7056 53.9841 16.7056 53.9841C16.7056 53.9841 17.1093 54.1187 17.5322 53.9073C18.5222 53.5997 19.4353 52.0618 20.0505 50.7642C20.2043 50.1394 20.4349 49.5531 20.7425 48.9956C20.7714 48.938 20.8098 48.8803 20.8386 48.8226C21.0789 48.4189 21.3481 48.0441 21.6556 47.698C23.0013 46.1601 24.9813 45.1894 27.1824 45.1894C27.3554 45.1894 27.5188 45.199 27.6822 45.2086C26.3462 41.4023 23.5684 36.2119 23.5684 36.2119C22.5784 34.0205 21.6076 32.2134 20.656 30.714C14.9947 21.775 10.3041 24.0434 10.1984 24.0915C8.8239 24.3894 7.62243 25.1584 6.76698 26.2061C6.71892 26.2637 6.67086 26.331 6.62281 26.3887C5.09453 28.5321 6.05571 32.7229 6.09416 32.867C6.28639 34.2415 6.57475 35.5968 6.92077 36.8848C6.93999 36.9424 6.94961 37.0097 6.96883 37.0674C8.65089 43.1901 11.6209 48.0152 11.6209 48.0152C11.9862 48.6592 12.3322 49.2455 12.659 49.755C15.1677 53.6862 16.5518 53.9649 16.696 53.9841Z" fill="url(#paint2_linear_758_1858)"/>
<defs>
<linearGradient id="paint0_linear_758_1858" x1="16.9417" y1="16.938" x2="16.9417" y2="19.1872" gradientUnits="userSpaceOnUse">
<stop offset="0.109375" stop-color="#005DAC"/>
<stop offset="0.567708" stop-color="#0C8970"/>
<stop offset="1" stop-color="#02FACF"/>
</linearGradient>
<linearGradient id="paint1_linear_758_1858" x1="48.6415" y1="11.6516" x2="48.6415" y2="19.8216" gradientUnits="userSpaceOnUse">
<stop offset="0.109375" stop-color="#005DAC"/>
<stop offset="0.567708" stop-color="#0C8970"/>
<stop offset="1" stop-color="#02FACF"/>
</linearGradient>
<linearGradient id="paint2_linear_758_1858" x1="26.6461" y1="0.5" x2="26.6461" y2="57.4156" gradientUnits="userSpaceOnUse">
<stop offset="0.109375" stop-color="#005DAC"/>
<stop offset="0.567708" stop-color="#0C8970"/>
<stop offset="1" stop-color="#02FACF"/>
</linearGradient>
</defs>
</svg>
