<svg width="197" height="197" viewBox="0 0 197 197" fill="none" xmlns="http://www.w3.org/2000/svg">
<g opacity="0.7">
<path d="M58.3115 58.8966C66.0118 58.8966 73.0494 61.6738 78.4775 66.2814C58.7533 58.1076 52.6625 59.4331 52.4731 59.4647V59.4331C54.3667 59.086 56.3233 58.8966 58.3115 58.8966Z" fill="white"/>
<path d="M182.969 54.952C182.969 57.8238 182.337 60.1592 181.264 62.0527C178.929 66.1869 174.542 68.0173 170.724 68.3329C170.314 68.3645 169.935 68.3645 169.556 68.3645C162.14 68.3645 156.144 62.3683 156.144 54.952C156.144 47.5357 162.14 41.5396 169.556 41.5396C176.972 41.5396 182.969 47.5357 182.969 54.952Z" fill="white"/>
<path d="M28.3442 77.7762C33.6145 72.9792 40.6205 70.0758 48.2893 70.0758C53.6859 70.0758 58.7352 71.496 63.0904 74.0207C63.5006 74.1785 73.3469 78.2811 87.2012 98.3524C89.8837 102.234 92.6924 106.716 95.6274 111.86C97.2684 114.731 98.9411 117.856 100.645 121.169C100.645 121.169 103.612 127.102 114.468 153.643C115.194 155.442 115.983 157.367 116.803 159.387C118.003 162.354 119.296 165.509 120.653 168.918C120.969 171.222 121.884 173.336 123.21 175.103C125.64 178.322 129.458 180.437 133.782 180.468C133.782 180.468 133.782 180.468 133.813 180.468C144.859 180.121 154.074 153.17 154.074 153.17C173.009 116.53 169.854 71.9062 169.538 68.0561C173.357 67.7405 177.712 65.9101 180.079 61.7759C181.656 65.5314 190.398 92.3247 158.587 171.758C158.587 171.758 151.392 186.622 137.727 191.104C136.654 191.261 135.581 191.324 134.445 191.324C129.237 191.324 124.44 189.683 120.496 186.906C118.507 185.486 116.74 183.782 115.257 181.857C114.089 180.342 113.079 178.669 112.322 176.871C111.975 176.082 111.691 175.293 111.407 174.472C106.768 166.235 103.801 163.647 102.192 162.858C101.718 162.732 101.245 162.638 100.74 162.574C100.14 162.48 99.5407 162.448 98.9095 162.448C96.7951 162.448 94.8069 162.922 93.0396 163.805C92.9133 163.9 88.6214 167.024 85.497 175.703C85.497 175.703 84.7712 176.965 83.6351 178.732C82.0887 181.163 79.7849 184.508 77.6389 186.812C77.0077 187.506 76.4081 188.074 75.8085 188.516C75.3983 188.768 74.988 189.021 74.5777 189.273C71.7059 190.883 68.3607 191.798 64.8261 191.798C62.9957 191.798 61.2599 191.545 59.5873 191.104C59.0824 190.851 28.5651 175.766 16.7306 102.013C16.0363 97.6582 15.4051 93.1137 14.8371 88.3168C15.1842 71.1804 25.4408 56.474 40.1156 49.6889C40.1156 49.6889 40.1472 49.6574 40.2103 49.6258C40.2734 49.5942 40.3681 49.5311 40.5259 49.4995C40.589 49.468 40.6521 49.4364 40.7152 49.4049C44.0604 48.0163 61.4809 42.5251 94.9962 61.271C94.9962 61.271 125.387 80.9636 137.821 64.6477C130.878 67.0462 122.673 65.7207 121.821 65.5945C121.79 65.5945 121.758 65.5945 121.758 65.5945C116.204 64.7424 106.105 61.8706 88.3689 53.2866C88.3689 53.2866 84.8974 51.3931 72.5895 46.9749C60.2816 42.5566 47.3426 43.5034 47.3426 43.5034C47.3426 43.5034 23.3579 46.6593 15.7838 70.6439L12.3124 71.2751C12.3124 71.2751 13.5747 41.9255 37.8749 23.6214C37.8749 23.6214 62.8063 -0.994389 107.62 6.26411C107.62 6.26411 122.799 8.5679 136.307 17.4675C136.338 17.4675 136.338 17.499 136.37 17.499C140.094 19.8344 142.965 23.3374 144.512 27.4716C144.954 28.229 145.395 29.0495 145.806 29.87C145.837 29.9647 145.9 30.0278 145.932 30.1225C148.046 34.4776 149.498 39.7795 148.93 45.681C148.93 45.681 130.468 35.74 106.168 30.943C106.105 30.943 106.073 30.943 106.01 30.9115C96.2586 28.9864 85.5917 27.9134 74.7671 28.6392C74.7671 28.6392 150.95 42.8722 152.465 56.9158C151.265 71.9062 138.705 83.7092 123.368 83.7092C122.2 83.7092 121.064 83.6461 119.959 83.5198C119.896 83.5198 119.833 83.5198 119.801 83.4883C119.549 83.4567 119.328 83.4252 119.076 83.3936C118.886 83.3621 118.697 83.3305 118.507 83.2989C118.35 83.2674 118.192 83.2358 118.034 83.2043C107.462 81.3738 100.298 76.9556 100.172 76.8925C91.1776 72.1587 83.6982 68.6873 77.5443 66.131C77.4496 66.0994 77.3549 66.0679 77.2918 66.0048C71.8637 61.3972 64.7945 58.62 57.1258 58.62C55.1376 58.62 53.1809 58.8094 51.2874 59.1565C40.9046 61.2078 32.3522 68.3086 28.3442 77.7762ZM64.6683 180.531C64.6998 180.531 64.6998 180.531 64.6998 180.531C64.6998 180.531 66.0253 180.973 67.4139 180.279C70.6644 179.269 73.6625 174.22 75.6823 169.959C76.1872 167.908 76.9446 165.983 77.9545 164.152C78.0492 163.963 78.1754 163.774 78.2701 163.584C79.0591 162.259 79.9427 161.028 80.9526 159.892C85.3708 154.843 91.8719 151.655 99.0988 151.655C99.6669 151.655 100.203 151.687 100.74 151.718C96.3532 139.221 87.2328 122.179 87.2328 122.179C83.9822 114.984 80.7948 109.051 77.6705 104.128C59.0824 74.7781 43.6817 82.2259 43.3346 82.3837C38.8217 83.3621 34.8769 85.8868 32.0681 89.3267C31.9103 89.516 31.7525 89.7369 31.5948 89.9263C26.5769 96.9639 29.7328 110.723 29.859 111.197C30.4902 115.71 31.437 120.16 32.5731 124.388C32.6362 124.578 32.6678 124.799 32.7309 124.988C38.2536 145.091 48.0053 160.933 48.0053 160.933C49.2045 163.048 50.3406 164.973 51.4136 166.646C59.6505 179.553 64.1949 180.468 64.6683 180.531Z" fill="white"/>
</g>
</svg>
