<svg width="150" height="150" viewBox="0 0 150 150" fill="none" xmlns="http://www.w3.org/2000/svg">
<path d="M43.75 87.5H56.25C57.9076 87.5 59.4973 86.8415 60.6694 85.6694C61.8415 84.4973 62.5 82.9076 62.5 81.25C62.5 79.5924 61.8415 78.0027 60.6694 76.8306C59.4973 75.6585 57.9076 75 56.25 75H43.75C42.0924 75 40.5027 75.6585 39.3306 76.8306C38.1585 78.0027 37.5 79.5924 37.5 81.25C37.5 82.9076 38.1585 84.4973 39.3306 85.6694C40.5027 86.8415 42.0924 87.5 43.75 87.5ZM81.25 100H43.75C42.0924 100 40.5027 100.658 39.3306 101.831C38.1585 103.003 37.5 104.592 37.5 106.25C37.5 107.908 38.1585 109.497 39.3306 110.669C40.5027 111.842 42.0924 112.5 43.75 112.5H81.25C82.9076 112.5 84.4973 111.842 85.6694 110.669C86.8415 109.497 87.5 107.908 87.5 106.25C87.5 104.592 86.8415 103.003 85.6694 101.831C84.4973 100.658 82.9076 100 81.25 100ZM118.75 12.5H31.25C26.2772 12.5 21.5081 14.4754 17.9917 17.9917C14.4754 21.5081 12.5 26.2772 12.5 31.25V118.75C12.5 123.723 14.4754 128.492 17.9917 132.008C21.5081 135.525 26.2772 137.5 31.25 137.5H118.75C123.723 137.5 128.492 135.525 132.008 132.008C135.525 128.492 137.5 123.723 137.5 118.75V31.25C137.5 26.2772 135.525 21.5081 132.008 17.9917C128.492 14.4754 123.723 12.5 118.75 12.5ZM87.5 25V45.5625L78.0625 40.3125C77.1124 39.7639 76.0346 39.4752 74.9375 39.4752C73.8404 39.4752 72.7626 39.7639 71.8125 40.3125L62.5 45.5625V25H87.5ZM125 118.75C125 120.408 124.342 121.997 123.169 123.169C121.997 124.342 120.408 125 118.75 125H31.25C29.5924 125 28.0027 124.342 26.8306 123.169C25.6585 121.997 25 120.408 25 118.75V31.25C25 29.5924 25.6585 28.0027 26.8306 26.8306C28.0027 25.6585 29.5924 25 31.25 25H50V56.25C50.0066 57.3407 50.2985 58.4107 50.8467 59.3537C51.3949 60.2966 52.1804 61.0797 53.125 61.625C54.0751 62.1735 55.1529 62.4623 56.25 62.4623C57.3471 62.4623 58.4249 62.1735 59.375 61.625L75 52.9375L90.6875 61.6875C91.6216 62.2169 92.6763 62.4967 93.75 62.5C95.4076 62.5 96.9973 61.8415 98.1694 60.6694C99.3415 59.4973 100 57.9076 100 56.25V25H118.75C120.408 25 121.997 25.6585 123.169 26.8306C124.342 28.0027 125 29.5924 125 31.25V118.75Z" fill="#4F4F4F"/>
</svg>
