<svg width="150" height="150" viewBox="0 0 150 150" fill="none" xmlns="http://www.w3.org/2000/svg">
<path d="M135.687 126.813L112.5 103.813C121.5 92.5903 125.859 78.3459 124.68 64.0084C123.501 49.6709 116.873 36.3301 106.159 26.7293C95.4458 17.1284 81.4611 11.9972 67.0805 12.3907C52.7 12.7842 39.0168 18.6725 28.8444 28.8449C18.672 39.0173 12.7837 52.7005 12.3902 67.081C11.9967 81.4616 17.1279 95.4463 26.7288 106.16C36.3297 116.873 49.6704 123.501 64.0079 124.68C78.3454 125.86 92.5898 121.501 103.812 112.5L126.812 135.5C127.393 136.086 128.085 136.551 128.846 136.868C129.608 137.186 130.425 137.349 131.25 137.349C132.075 137.349 132.892 137.186 133.653 136.868C134.415 136.551 135.106 136.086 135.687 135.5C136.814 134.335 137.443 132.777 137.443 131.157C137.443 129.536 136.814 127.978 135.687 126.813ZM68.7498 112.5C60.0968 112.5 51.6382 109.934 44.4436 105.127C37.2489 100.32 31.6414 93.4869 28.33 85.4927C25.0187 77.4984 24.1523 68.7017 25.8404 60.2151C27.5285 51.7284 31.6953 43.9329 37.8139 37.8143C43.9324 31.6958 51.7279 27.529 60.2146 25.8409C68.7012 24.1528 77.4979 25.0192 85.4922 28.3305C93.4864 31.6419 100.319 37.2494 105.127 44.4441C109.934 51.6387 112.5 60.0973 112.5 68.7503C112.5 80.3535 107.89 91.4815 99.6857 99.6862C91.481 107.891 80.353 112.5 68.7498 112.5Z" fill="#4F4F4F"/>
</svg>
