<svg width="150" height="150" viewBox="0 0 150 150" fill="none" xmlns="http://www.w3.org/2000/svg">
<path d="M133.125 63.0003C131.369 60.8918 129.171 59.1945 126.687 58.0282C124.204 56.8619 121.494 56.255 118.75 56.2503H90.25L93.75 47.3128C95.2058 43.3995 95.6907 39.1916 95.1629 35.0498C94.6351 30.908 93.1106 26.9561 90.7199 23.533C88.3293 20.1099 85.1439 17.3178 81.4371 15.3962C77.7303 13.4746 73.6127 12.4809 69.4375 12.5003C68.2352 12.5028 67.0592 12.852 66.0504 13.506C65.0417 14.1601 64.2429 15.0912 63.75 16.1878L45.9375 56.2503H31.25C26.2772 56.2503 21.5081 58.2257 17.9917 61.742C14.4754 65.2583 12.5 70.0275 12.5 75.0003V118.75C12.5 123.723 14.4754 128.492 17.9917 132.009C21.5081 135.525 26.2772 137.5 31.25 137.5H110.813C115.199 137.499 119.446 135.96 122.815 133.15C126.183 130.341 128.46 126.44 129.25 122.125L137.188 78.3753C137.678 75.6714 137.569 72.8927 136.867 70.2358C136.165 67.5788 134.887 65.1087 133.125 63.0003ZM43.75 125H31.25C29.5924 125 28.0027 124.342 26.8306 123.17C25.6585 121.998 25 120.408 25 118.75V75.0003C25 73.3427 25.6585 71.753 26.8306 70.5809C28.0027 69.4088 29.5924 68.7503 31.25 68.7503H43.75V125ZM125 76.1253L117.063 119.875C116.796 121.331 116.022 122.646 114.877 123.584C113.733 124.523 112.292 125.024 110.813 125H56.25V63.8128L73.25 25.5628C74.9999 26.0729 76.6251 26.9403 78.0229 28.1102C79.4207 29.28 80.5608 30.7269 81.3712 32.3596C82.1817 33.9923 82.6449 35.7752 82.7316 37.5959C82.8183 39.4166 82.5266 41.2355 81.875 42.9378L78.5625 51.8753C77.8567 53.7644 77.6184 55.7962 77.868 57.7973C78.1176 59.7985 78.8476 61.7095 79.9958 63.3674C81.1441 65.0253 82.6763 66.3807 84.4619 67.318C86.2475 68.2554 88.2334 68.7468 90.25 68.7503H118.75C119.668 68.7488 120.575 68.9496 121.407 69.3385C122.239 69.7274 122.975 70.2948 123.563 71.0003C124.165 71.6961 124.606 72.5162 124.854 73.4021C125.103 74.288 125.152 75.2179 125 76.1253Z" fill="#4F4F4F"/>
</svg>
