<svg width="161" height="221" viewBox="0 0 161 221" fill="none" xmlns="http://www.w3.org/2000/svg">
<path d="M150.917 200.02H140.917V183.35C140.886 177.627 139.873 171.953 137.921 166.573C137.812 166.279 137.697 166.007 137.562 165.727C135.943 161.311 133.705 157.148 130.917 153.36L116.918 134.688C113.034 129.486 110.929 123.172 110.917 116.68V106.582C110.94 98.6313 114.096 91.01 119.701 85.3711L126.273 78.7988C133.91 71.1213 138.815 61.1497 140.236 50.415C140.242 50.2759 140.316 50.1599 140.316 50.0195L140.288 49.8822C140.636 47.753 140.846 45.6035 140.917 43.4473V20.02H150.917C153.569 20.02 156.113 18.9664 157.988 17.0911C159.864 15.2157 160.917 12.6722 160.917 10.02C160.917 7.36784 159.864 4.8243 157.988 2.94893C156.113 1.07357 153.569 0.0200005 150.917 0.0200005H10.9171C8.26493 0.0200005 5.72139 1.07357 3.84602 2.94893C1.97066 4.8243 0.917092 7.36784 0.917092 10.02C0.917092 12.6722 1.97066 15.2157 3.84602 17.0911C5.72139 18.9664 8.26493 20.02 10.9171 20.02H20.9171V43.4473C20.9881 45.6035 21.1981 47.753 21.5458 49.8822L21.5176 50.02C21.5176 50.16 21.592 50.2764 21.5976 50.4155C23.0192 61.1502 27.9245 71.1217 35.5606 78.7993L42.1329 85.3716C47.7378 91.0104 50.894 98.6314 50.917 106.582V116.68C50.904 123.171 48.8015 129.485 44.9209 134.688L30.9121 153.359C28.1245 157.149 25.8878 161.314 24.2684 165.731C24.1354 166.008 24.0212 166.277 23.9132 166.568C21.9618 171.949 20.9483 177.626 20.917 183.35V200.02H10.917C8.26483 200.02 5.72129 201.074 3.84592 202.949C1.97056 204.824 0.916992 207.368 0.916992 210.02C0.916992 212.672 1.97056 215.216 3.84592 217.091C5.72129 218.966 8.26483 220.02 10.917 220.02H150.917C153.569 220.02 156.113 218.966 157.988 217.091C159.863 215.216 160.917 212.672 160.917 210.02C160.917 207.368 159.863 204.824 157.988 202.949C156.113 201.074 153.569 200.02 150.917 200.02V200.02ZM40.917 40.02V20.02H120.917V40.02H40.917ZM49.7012 64.6587C48.2921 63.2431 47.0294 61.689 45.9323 60.02H115.902C114.805 61.689 113.542 63.2431 112.133 64.6587L105.56 71.231C97.7602 78.9855 92.7584 89.1126 91.3418 100.02H70.4918C69.0755 89.1123 64.0738 78.9848 56.2734 71.23L49.7012 64.6587ZM60.9219 146.68C66.7081 138.927 70.1391 129.671 70.8047 120.02H91.0293C91.6944 129.672 95.1273 138.928 100.917 146.68L110.918 160.02H50.9133L60.9219 146.68ZM120.917 200.02H40.917V183.35C40.9448 182.236 41.0357 181.124 41.1892 180.02H120.645C120.798 181.124 120.889 182.236 120.917 183.35V200.02Z" fill="white"/>
</svg>
